<svg width="224" height="53" viewBox="0 0 224 53" fill="none" xmlns="http://www.w3.org/2000/svg">
<path d="M69.6619 24.4347H66.4744C66.3835 23.9119 66.2159 23.4489 65.9716 23.0455C65.7273 22.6364 65.4233 22.2898 65.0597 22.0057C64.696 21.7216 64.2813 21.5085 63.8153 21.3665C63.3551 21.2188 62.858 21.1449 62.3239 21.1449C61.375 21.1449 60.5341 21.3835 59.8011 21.8608C59.0682 22.3324 58.4943 23.0256 58.0795 23.9403C57.6648 24.8494 57.4574 25.9602 57.4574 27.2727C57.4574 28.608 57.6648 29.733 58.0795 30.6477C58.5 31.5568 59.0739 32.2443 59.8011 32.7102C60.5341 33.1705 61.3722 33.4006 62.3153 33.4006C62.8381 33.4006 63.3267 33.3324 63.7812 33.196C64.2415 33.054 64.6534 32.8466 65.017 32.5739C65.3864 32.3011 65.696 31.9659 65.946 31.5682C66.2017 31.1705 66.3778 30.7159 66.4744 30.2045L69.6619 30.2216C69.5426 31.0511 69.2841 31.8295 68.8864 32.5568C68.4943 33.2841 67.9801 33.9261 67.3438 34.483C66.7074 35.0341 65.9631 35.4659 65.1108 35.7784C64.2585 36.0852 63.3125 36.2386 62.2727 36.2386C60.7386 36.2386 59.3693 35.8835 58.1648 35.1733C56.9602 34.4631 56.0114 33.4375 55.3182 32.0966C54.625 30.7557 54.2784 29.1477 54.2784 27.2727C54.2784 25.392 54.6278 23.7841 55.3267 22.4489C56.0256 21.108 56.9773 20.0824 58.1818 19.3722C59.3864 18.6619 60.75 18.3068 62.2727 18.3068C63.2443 18.3068 64.1477 18.4432 64.983 18.7159C65.8182 18.9886 66.5625 19.3892 67.2159 19.9176C67.8693 20.4403 68.4063 21.0824 68.8267 21.8438C69.2528 22.5994 69.5313 23.4631 69.6619 24.4347ZM76.1882 36.2642C75.3587 36.2642 74.6115 36.1165 73.9467 35.821C73.2876 35.5199 72.7649 35.0767 72.3786 34.4915C71.9979 33.9062 71.8075 33.1847 71.8075 32.3267C71.8075 31.5881 71.9439 30.9773 72.2166 30.4943C72.4893 30.0114 72.8615 29.625 73.3331 29.3352C73.8047 29.0455 74.3359 28.8267 74.9268 28.679C75.5234 28.5256 76.1399 28.4148 76.7763 28.3466C77.5433 28.267 78.1655 28.196 78.6428 28.1335C79.12 28.0653 79.4666 27.9631 79.6825 27.8267C79.9041 27.6847 80.0149 27.4659 80.0149 27.1705V27.1193C80.0149 26.4773 79.8246 25.9801 79.4439 25.6278C79.0632 25.2756 78.5149 25.0994 77.799 25.0994C77.0433 25.0994 76.4439 25.2642 76.0007 25.5938C75.5632 25.9233 75.2678 26.3125 75.1143 26.7614L72.2337 26.3523C72.4609 25.5568 72.8359 24.892 73.3587 24.358C73.8814 23.8182 74.5206 23.4148 75.2763 23.1477C76.032 22.875 76.8672 22.7386 77.782 22.7386C78.4126 22.7386 79.0405 22.8125 79.6655 22.9602C80.2905 23.108 80.8615 23.3523 81.3786 23.6932C81.8956 24.0284 82.3104 24.4858 82.6229 25.0653C82.9411 25.6449 83.1001 26.3693 83.1001 27.2386V36H80.1342V34.2017H80.032C79.8445 34.5653 79.5803 34.9062 79.2393 35.2244C78.9041 35.5369 78.4808 35.7898 77.9695 35.983C77.4638 36.1705 76.87 36.2642 76.1882 36.2642ZM76.9893 33.9972C77.6087 33.9972 78.1456 33.875 78.6001 33.6307C79.0547 33.3807 79.4041 33.0511 79.6484 32.642C79.8984 32.233 80.0234 31.7869 80.0234 31.304V29.7614C79.9268 29.8409 79.7621 29.9148 79.5291 29.983C79.3018 30.0511 79.0462 30.1108 78.7621 30.1619C78.478 30.2131 78.1967 30.2585 77.9183 30.2983C77.6399 30.3381 77.3984 30.3722 77.1939 30.4006C76.7337 30.4631 76.3217 30.5653 75.9581 30.7074C75.5945 30.8494 75.3075 31.0483 75.0973 31.304C74.8871 31.554 74.782 31.8778 74.782 32.2756C74.782 32.8438 74.9893 33.2727 75.4041 33.5625C75.8189 33.8523 76.3473 33.9972 76.9893 33.9972ZM89.2876 28.3295V36H86.2024V22.9091H89.1513V25.1335H89.3047C89.6058 24.4006 90.0859 23.8182 90.745 23.3864C91.4098 22.9545 92.2308 22.7386 93.2081 22.7386C94.1115 22.7386 94.8984 22.9318 95.5689 23.3182C96.245 23.7045 96.7678 24.2642 97.1371 24.9972C97.5121 25.7301 97.6967 26.6193 97.6911 27.6648V36H94.6058V28.142C94.6058 27.267 94.3786 26.5824 93.924 26.0881C93.4751 25.5937 92.853 25.3466 92.0575 25.3466C91.5178 25.3466 91.0376 25.4659 90.6172 25.7045C90.2024 25.9375 89.8757 26.2756 89.6371 26.7188C89.4041 27.1619 89.2876 27.6989 89.2876 28.3295ZM112.052 22.9091L107.39 36H103.981L99.3189 22.9091H102.609L105.617 32.6335H105.754L108.771 22.9091H112.052ZM117.579 36.2642C116.749 36.2642 116.002 36.1165 115.337 35.821C114.678 35.5199 114.156 35.0767 113.769 34.4915C113.388 33.9062 113.198 33.1847 113.198 32.3267C113.198 31.5881 113.335 30.9773 113.607 30.4943C113.88 30.0114 114.252 29.625 114.724 29.3352C115.195 29.0455 115.727 28.8267 116.317 28.679C116.914 28.5256 117.531 28.4148 118.167 28.3466C118.934 28.267 119.556 28.196 120.033 28.1335C120.511 28.0653 120.857 27.9631 121.073 27.8267C121.295 27.6847 121.406 27.4659 121.406 27.1705V27.1193C121.406 26.4773 121.215 25.9801 120.835 25.6278C120.454 25.2756 119.906 25.0994 119.19 25.0994C118.434 25.0994 117.835 25.2642 117.391 25.5938C116.954 25.9233 116.658 26.3125 116.505 26.7614L113.624 26.3523C113.852 25.5568 114.227 24.892 114.749 24.358C115.272 23.8182 115.911 23.4148 116.667 23.1477C117.423 22.875 118.258 22.7386 119.173 22.7386C119.803 22.7386 120.431 22.8125 121.056 22.9602C121.681 23.108 122.252 23.3523 122.769 23.6932C123.286 24.0284 123.701 24.4858 124.013 25.0653C124.332 25.6449 124.491 26.3693 124.491 27.2386V36H121.525V34.2017H121.423C121.235 34.5653 120.971 34.9062 120.63 35.2244C120.295 35.5369 119.871 35.7898 119.36 35.983C118.854 36.1705 118.261 36.2642 117.579 36.2642ZM118.38 33.9972C118.999 33.9972 119.536 33.875 119.991 33.6307C120.445 33.3807 120.795 33.0511 121.039 32.642C121.289 32.233 121.414 31.7869 121.414 31.304V29.7614C121.317 29.8409 121.153 29.9148 120.92 29.983C120.692 30.0511 120.437 30.1108 120.153 30.1619C119.869 30.2131 119.587 30.2585 119.309 30.2983C119.031 30.3381 118.789 30.3722 118.585 30.4006C118.124 30.4631 117.712 30.5653 117.349 30.7074C116.985 30.8494 116.698 31.0483 116.488 31.304C116.278 31.554 116.173 31.8778 116.173 32.2756C116.173 32.8438 116.38 33.2727 116.795 33.5625C117.21 33.8523 117.738 33.9972 118.38 33.9972ZM137.94 26.3693L135.127 26.6761C135.048 26.392 134.908 26.125 134.71 25.875C134.516 25.625 134.255 25.4233 133.925 25.2699C133.596 25.1165 133.192 25.0398 132.715 25.0398C132.073 25.0398 131.533 25.179 131.096 25.4574C130.664 25.7358 130.451 26.0966 130.457 26.5398C130.451 26.9205 130.59 27.2301 130.874 27.4688C131.164 27.7074 131.641 27.9034 132.306 28.0568L134.539 28.5341C135.778 28.8011 136.698 29.2244 137.3 29.804C137.908 30.3835 138.215 31.142 138.221 32.0795C138.215 32.9034 137.974 33.6307 137.496 34.2614C137.025 34.8864 136.369 35.375 135.528 35.7273C134.687 36.0795 133.721 36.2557 132.63 36.2557C131.028 36.2557 129.738 35.9205 128.761 35.25C127.783 34.5739 127.201 33.6335 127.013 32.429L130.022 32.1392C130.158 32.7301 130.448 33.1761 130.891 33.4773C131.335 33.7784 131.911 33.929 132.621 33.929C133.354 33.929 133.942 33.7784 134.386 33.4773C134.835 33.1761 135.059 32.804 135.059 32.3608C135.059 31.9858 134.914 31.6761 134.624 31.4318C134.34 31.1875 133.897 31 133.295 30.8693L131.062 30.4006C129.806 30.1392 128.877 29.6989 128.275 29.0795C127.673 28.4545 127.374 27.6648 127.38 26.7102C127.374 25.9034 127.593 25.2045 128.036 24.6136C128.485 24.017 129.107 23.5568 129.903 23.233C130.704 22.9034 131.627 22.7386 132.673 22.7386C134.207 22.7386 135.414 23.0653 136.295 23.7188C137.181 24.3722 137.729 25.2557 137.94 26.3693ZM147.05 36V18.5455H149.684V33.733H157.593V36H147.05ZM164.202 36.2898C163.373 36.2898 162.623 36.1364 161.952 35.8295C161.282 35.517 160.751 35.0653 160.359 34.4744C159.972 33.8835 159.779 33.1591 159.779 32.3011C159.779 31.5625 159.921 30.9545 160.205 30.4773C160.489 30 160.873 29.6222 161.356 29.3438C161.839 29.0653 162.379 28.8551 162.975 28.7131C163.572 28.571 164.18 28.4631 164.799 28.3892C165.583 28.2983 166.219 28.2244 166.708 28.1676C167.197 28.1051 167.552 28.0057 167.773 27.8693C167.995 27.733 168.106 27.5114 168.106 27.2045V27.1449C168.106 26.4006 167.896 25.8239 167.475 25.4148C167.06 25.0057 166.441 24.8011 165.617 24.8011C164.759 24.8011 164.083 24.9915 163.589 25.3722C163.1 25.7472 162.762 26.1648 162.575 26.625L160.18 26.0795C160.464 25.2841 160.879 24.642 161.424 24.1534C161.975 23.6591 162.609 23.3011 163.325 23.0795C164.04 22.8523 164.793 22.7386 165.583 22.7386C166.106 22.7386 166.66 22.8011 167.245 22.9261C167.836 23.0455 168.387 23.267 168.898 23.5909C169.415 23.9148 169.839 24.3778 170.168 24.9801C170.498 25.5767 170.663 26.3523 170.663 27.3068V36H168.174V34.2102H168.072C167.907 34.5398 167.66 34.8636 167.33 35.1818C167.001 35.5 166.577 35.7642 166.06 35.9744C165.543 36.1847 164.924 36.2898 164.202 36.2898ZM164.756 34.2443C165.461 34.2443 166.063 34.1051 166.563 33.8267C167.069 33.5483 167.452 33.1847 167.714 32.7358C167.981 32.2812 168.114 31.7955 168.114 31.2784V29.5909C168.023 29.6818 167.847 29.767 167.586 29.8466C167.33 29.9205 167.038 29.9858 166.708 30.0426C166.379 30.0937 166.058 30.142 165.745 30.1875C165.433 30.2273 165.171 30.2614 164.961 30.2898C164.467 30.3523 164.015 30.4574 163.606 30.6051C163.202 30.7528 162.879 30.9659 162.634 31.2443C162.396 31.517 162.276 31.8807 162.276 32.3352C162.276 32.9659 162.509 33.4432 162.975 33.767C163.441 34.0852 164.035 34.2443 164.756 34.2443ZM176.605 28.2273V36H174.057V22.9091H176.503V25.0398H176.665C176.966 24.3466 177.438 23.7898 178.08 23.3693C178.727 22.9489 179.543 22.7386 180.526 22.7386C181.418 22.7386 182.199 22.9261 182.869 23.3011C183.54 23.6705 184.06 24.2216 184.429 24.9545C184.798 25.6875 184.983 26.5937 184.983 27.6733V36H182.435V27.9801C182.435 27.0312 182.188 26.2898 181.693 25.7557C181.199 25.2159 180.52 24.946 179.656 24.946C179.065 24.946 178.54 25.0739 178.08 25.3295C177.625 25.5852 177.264 25.9602 176.997 26.4545C176.736 26.9432 176.605 27.5341 176.605 28.2273ZM193.915 36.2642C192.648 36.2642 191.557 35.9773 190.642 35.4034C189.733 34.8239 189.034 34.0256 188.545 33.0085C188.057 31.9915 187.812 30.8267 187.812 29.5142C187.812 28.1847 188.062 27.0114 188.562 25.9943C189.062 24.9716 189.767 24.1733 190.676 23.5994C191.585 23.0256 192.656 22.7386 193.889 22.7386C194.884 22.7386 195.77 22.9233 196.548 23.2926C197.327 23.6562 197.955 24.1676 198.432 24.8267C198.915 25.4858 199.202 26.2557 199.293 27.1364H196.812C196.676 26.5227 196.364 25.9943 195.875 25.5511C195.392 25.108 194.744 24.8864 193.932 24.8864C193.222 24.8864 192.599 25.0739 192.065 25.4489C191.537 25.8182 191.125 26.3466 190.83 27.0341C190.534 27.7159 190.386 28.5227 190.386 29.4545C190.386 30.4091 190.531 31.233 190.821 31.9261C191.111 32.6193 191.52 33.1562 192.048 33.5369C192.582 33.9176 193.21 34.108 193.932 34.108C194.415 34.108 194.852 34.0199 195.244 33.8438C195.642 33.6619 195.974 33.4034 196.241 33.0682C196.514 32.733 196.705 32.3295 196.812 31.858H199.293C199.202 32.7045 198.926 33.4602 198.466 34.125C198.006 34.7898 197.389 35.3125 196.616 35.6932C195.849 36.0739 194.949 36.2642 193.915 36.2642ZM207.66 36.2642C206.37 36.2642 205.259 35.9886 204.327 35.4375C203.401 34.8807 202.685 34.0994 202.18 33.0938C201.68 32.0824 201.43 30.8977 201.43 29.5398C201.43 28.1989 201.68 27.017 202.18 25.9943C202.685 24.9716 203.39 24.1733 204.293 23.5994C205.202 23.0256 206.265 22.7386 207.481 22.7386C208.219 22.7386 208.935 22.8608 209.629 23.1051C210.322 23.3494 210.944 23.733 211.495 24.2557C212.046 24.7784 212.481 25.4574 212.799 26.2926C213.117 27.1222 213.276 28.1307 213.276 29.3182V30.2216H202.87V28.3125H210.779C210.779 27.642 210.643 27.0483 210.37 26.5312C210.097 26.0085 209.714 25.5966 209.219 25.2955C208.731 24.9943 208.157 24.8438 207.498 24.8438C206.782 24.8438 206.157 25.0199 205.623 25.3722C205.094 25.7187 204.685 26.1733 204.396 26.7358C204.112 27.2926 203.969 27.8977 203.969 28.5511V30.0426C203.969 30.9176 204.123 31.6619 204.43 32.2756C204.742 32.8892 205.177 33.358 205.734 33.6818C206.29 34 206.941 34.1591 207.685 34.1591C208.168 34.1591 208.609 34.0909 209.006 33.9545C209.404 33.8125 209.748 33.6023 210.038 33.3239C210.327 33.0455 210.549 32.7017 210.702 32.2926L213.114 32.7273C212.921 33.4375 212.575 34.0597 212.075 34.5938C211.58 35.1222 210.958 35.5341 210.208 35.8295C209.464 36.1193 208.614 36.2642 207.66 36.2642ZM216.104 36V22.9091H218.567V24.9886H218.703C218.942 24.2841 219.362 23.7301 219.964 23.3267C220.572 22.9176 221.26 22.7131 222.027 22.7131C222.186 22.7131 222.374 22.7187 222.589 22.7301C222.811 22.7415 222.984 22.7557 223.109 22.7727V25.2102C223.007 25.1818 222.825 25.1506 222.564 25.1165C222.303 25.0767 222.041 25.0568 221.78 25.0568C221.178 25.0568 220.641 25.1847 220.169 25.4403C219.703 25.6903 219.334 26.0398 219.061 26.4886C218.788 26.9318 218.652 27.4375 218.652 28.0057V36H216.104Z" fill="white"/>
<path d="M13.2537 11.6243C17.5582 7.70479 22.5971 5.90168 28.3897 6.23417C34.2845 6.57305 38.953 9.30969 42.9318 13.7663C44.3432 12.2509 45.6205 10.8762 46.9936 9.4056C46.8595 9.23296 46.7126 9.06032 46.5721 8.89408L45.6461 9.12426L45.8504 8.06285C43.0978 5.04488 39.6491 2.85813 35.9194 1.53456L34.8976 2.85173L35.1786 1.29159C32.5793 0.447581 29.865 0.019182 27.1571 0L26.7548 1.88623L26.0395 0.012788C22.8398 0.12788 19.6849 0.818434 16.811 2.09724C16.696 2.14839 16.5874 2.21233 16.4789 2.26348L16.5874 3.46556L15.7636 2.6727L11.0248 5.73543L12.7619 10.3455C12.8769 10.7739 13.0365 11.1959 13.2409 11.6115L13.2537 11.6243Z" fill="#FF3839"/>
<path d="M20.0426 9.96828C18.3246 10.7867 17.1495 11.4964 16.3767 12.2573V12.1422L14.2053 13.7216L16.9196 19.4378C16.9387 19.4698 16.9515 19.5018 16.9771 19.5465C22.9165 12.2957 31.8704 13.2612 36.7242 19.2012C38.1803 17.8201 39.63 16.4454 41.0542 15.0899C36.2452 8.5488 27.4062 6.46435 20.0426 9.96828Z" fill="#FF3839"/>
<path d="M41.7758 40.5061C37.7204 44.6814 32.8028 46.7914 26.9975 46.8106C21.0963 46.8298 16.2617 44.3873 12.0211 40.1864C10.7055 41.7849 9.51119 43.2363 8.23389 44.7901C8.38078 44.9563 8.53405 45.1162 8.68733 45.276L9.59421 44.9883L9.45371 46.0561C12.3851 48.9014 15.9616 50.8708 19.7679 51.9642L20.7067 50.5895L20.5215 52.1688C23.1656 52.8401 25.9054 53.1023 28.6069 52.9552L28.8942 51.0498L29.7181 52.8721C32.905 52.5588 36.0088 51.6828 38.7997 50.225C38.9147 50.1674 39.0169 50.0971 39.1191 50.0332L38.9338 48.8439L39.8024 49.5856L44.3432 46.2351L42.3251 41.7401C42.1846 41.3181 41.9994 40.9089 41.7695 40.5061H41.7758Z" fill="#FF3839"/>
<path d="M17.8903 34.3806C16.5236 35.8512 15.1568 37.3155 13.8157 38.7541C19.0207 44.9883 27.9682 46.5293 35.1019 42.5714C36.7688 41.6506 40.6965 38.4664 40.6965 38.4664L37.6374 32.9292C37.6118 32.8972 37.599 32.8652 37.5735 32.8269C32.0875 40.4294 23.0889 40.0137 17.8839 34.3806H17.8903Z" fill="#FF3839"/>
<path d="M9.35793 7.13573C7.95928 8.53602 6.76501 9.94909 5.76233 11.3622L7.32702 12.8456L5.24502 12.1103C3.21411 15.1602 2.02622 18.191 1.43227 21.1067L2.92671 21.9059L1.25983 22.0658C0.697822 25.5569 0.966055 28.8562 1.62387 31.7719L4.95124 31.5353L1.82823 32.6223C2.67764 35.9152 3.98688 38.6646 5.07258 40.57L6.59896 39.2529L5.45577 41.2222C6.32434 42.6673 6.96938 43.4857 6.96938 43.4857L18.7142 26.7973L9.35154 7.13573H9.35793Z" fill="#FF3839"/>
</svg>
